<svg width="9" height="15" viewBox="0 0 9 15" fill="none" xmlns="http://www.w3.org/2000/svg">
<path d="M4.83298 6.58301C2.94198 6.09201 2.33298 5.58299 2.33298 4.79199C2.33298 3.88299 3.17498 3.25 4.58298 3.25C6.06698 3.25 6.61696 3.958 6.66696 5H8.50797C8.44997 3.567 7.57498 2.25001 5.83298 1.82501V0H3.33298V1.79999C1.71698 2.14999 0.416962 3.19998 0.416962 4.80798C0.416962 6.73298 2.00798 7.692 4.33298 8.25C6.41698 8.75 6.83298 9.483 6.83298 10.258C6.83298 10.833 6.42498 11.75 4.58298 11.75C2.86698 11.75 2.19198 10.983 2.09998 10H0.266968C0.366968 11.825 1.73298 12.85 3.33298 13.192V15H5.83298V13.208C7.45798 12.9 8.74997 11.958 8.74997 10.25C8.74997 7.883 6.72498 7.07501 4.83298 6.58301Z" fill="#11132A"/>
</svg>
