<svg width="20" height="19" viewBox="0 0 20 19" fill="none" xmlns="http://www.w3.org/2000/svg">
<path d="M10 8C8.9 8 8 8.9 8 10C8 11.1 8.9 12 10 12C11.1 12 12 11.1 12 10C12 8.9 11.1 8 10 8ZM16 10C16 6.44 12.89 3.59999 9.25 4.04999C6.63 4.36999 4.47001 6.46001 4.07001 9.07001C3.74001 11.22 4.56 13.18 6 14.47C6.48 14.9 7.23 14.8 7.56 14.24L7.57001 14.23C7.81001 13.81 7.71001 13.3 7.35001 12.97C6.32001 12.04 5.76001 10.6 6.13001 9.03C6.46001 7.61 7.61 6.46 9.03 6.12C11.65 5.49 14 7.47 14 10C14 11.18 13.48 12.23 12.67 12.96C12.31 13.28 12.2 13.8 12.44 14.22L12.45 14.23C12.76 14.76 13.48 14.92 13.95 14.51C15.2 13.41 16 11.8 16 10ZM8.82999 0.0700099C4.20999 0.59001 0.479993 4.4 0.0499926 9.03C-0.300007 12.73 1.37001 16.05 4.07001 18.04C4.55001 18.39 5.23 18.24 5.53 17.73C5.78 17.3 5.66999 16.74 5.26999 16.44C2.98999 14.75 1.61999 11.89 2.10999 8.73999C2.64999 5.23999 5.57 2.45 9.09 2.06C13.91 1.51 18 5.28 18 10C18 12.65 16.71 14.98 14.73 16.44C14.33 16.74 14.22 17.29 14.47 17.73C14.77 18.25 15.45 18.39 15.93 18.04C18.4 16.22 20 13.3 20 10C20 4.09 14.87 -0.61999 8.82999 0.0700099Z" fill="white"/>
</svg>
