<svg width="12" height="20" viewBox="0 0 12 20" fill="none" xmlns="http://www.w3.org/2000/svg">
<path d="M2 0C0.9 0 0 0.9 0 2L0.0100098 5.17999C0.0100098 5.70999 0.220027 6.21 0.590027 6.59L4 10L0.590027 13.43C0.220027 13.8 0.0100098 14.31 0.0100098 14.84L0 18C0 19.1 0.9 20 2 20H10C11.1 20 12 19.1 12 18V14.84C12 14.31 11.79 13.8 11.42 13.43L8 10L11.41 6.60001C11.79 6.22001 12 5.70999 12 5.17999V2C12 0.9 11.1 0 10 0H2ZM10 14.91V17C10 17.55 9.55 18 9 18H3C2.45 18 2 17.55 2 17V14.91C2 14.64 2.10998 14.39 2.28998 14.2L6 10.5L9.71002 14.21C9.89002 14.39 10 14.65 10 14.91Z" fill="white"/>
</svg>
